<?xml version="1.0" encoding="utf-8"?>
<!-- Generator: Adobe Illustrator 23.0.1, SVG Export Plug-In . SVG Version: 6.00 Build 0)  -->
<svg version="1.1" id="Layer_1" focusable="false" xmlns="http://www.w3.org/2000/svg" xmlns:xlink="http://www.w3.org/1999/xlink"
	 x="0px" y="0px" viewBox="0 0 612 200.4" style="enable-background:new 0 0 612 200.4;" xml:space="preserve">
<style type="text/css">
	.st0{fill:#67BC46;}
</style>
<title>Recette</title>
<g>
	<path class="st0" d="M172.7,187.1c-3.4-3-7.4-6.8-11.8-11.4c-4.5-4.6-9.3-10-14.6-16.3c-5.2-6.3-10.7-13.6-16.4-21.9
		c-5.7-8.2-11.3-17.6-16.9-28c17.2-3.2,31.9-7.1,44-11.6c12.1-4.6,21.9-9.5,29.5-14.9c7.6-5.4,13.1-10.9,16.6-16.7
		c3.5-5.8,5.2-11.4,5.1-17.1c-0.1-6.4-2.2-12.5-6.3-18.3c-4.1-5.8-9.8-10.8-17-15.2c-7.2-4.4-15.8-7.9-25.8-10.6
		c-10-2.6-20.9-4-32.7-4c-2.2,0-4.4,0-6.5,0c-2.1,0-4.3,0.2-6.7,0.5c-7.7,0.6-15.9,1.5-24.8,2.5c-8.9,1-17.8,2.4-26.9,4.1
		s-18,3.8-26.8,6.5C26,17.5,18,20.7,10.7,24.6c-3.3,1.8-5.8,4.4-7.4,8C1.6,36.2,0.9,39.7,0.9,43c0.1,3.2,0.8,5.7,2.3,7.6
		c1.5,1.8,3.5,2,6,0.6c8.2-4.5,16.7-8.2,25.3-11.3c8.6-3,17.2-5.6,25.7-7.6c8.5-2,17-3.5,25.3-4.6c8.3-1,16.3-2,24-2.8
		c2.1-0.2,4.1-0.3,6.1-0.4c2-0.1,4-0.1,5.9-0.1c7.7,0,14.8,0.6,21.4,1.9c6.6,1.3,12.3,3,17.1,5.3c4.8,2.2,8.6,4.9,11.3,8.1
		c2.7,3.1,4.1,6.5,4.1,10.2c0.1,3.7-1.6,7.6-5,11.8c-3.4,4.2-8.8,8.4-16.4,12.6c-7.5,4.2-17.3,8.4-29.3,12.5
		c-12,4.1-26.7,7.9-44.1,11.4c3.3-5.4,6.7-10.8,10.3-16.1c3.6-5.3,7.2-10.3,10.8-15c3.6-4.7,7.2-9.1,10.7-13.1
		c3.5-4,6.9-7.5,10-10.6c0-1-0.8-1.9-2.3-2.8c-1.5-0.9-3.4-1.7-5.7-2.4c-2.3-0.7-4.7-1.3-7.5-1.8c-2.7-0.5-5.3-0.7-7.7-0.7
		c-1.6,0-3.1,0.1-4.4,0.4c-1.4,0.2-2.4,0.6-3.2,1.1l0-0.2c-6.9,6.6-13.9,14.5-20.8,23.8c-7,9.3-13.2,19.3-18.8,30
		c-5.6,10.7-10.1,21.9-13.5,33.4c-3.4,11.5-5,22.7-4.8,33.6c0.1,3.2,0.3,6.4,0.8,9.5c0.5,3.1,1.2,6.3,2.2,9.5c0,2.2,1.6,3.9,4.7,5
		c3.1,1.1,6.4,1.7,10.1,1.7c2.9,0,5.5-0.4,8-1.2c2.5-0.8,4-1.9,4.6-3.4c-1.5-5.3-2.4-11-2.5-17.1c-0.1-7.2,0.8-14.8,2.7-22.7
		c1.9-7.9,4.7-16,8.2-24.1l21.6-2.4c3.1,11.2,6.5,21,10.1,29.3c3.7,8.3,7.5,15.6,11.4,22c4,6.3,8.1,12,12.3,16.9
		c4.2,5,8.4,9.7,12.5,14.2l3.9,4.3c1.6,0.6,3.5,1,5.5,1c2.7,0,5.8-0.4,9.2-1.2c3.4-0.8,6.5-1.8,9.1-3.1c2.6-1.3,4.5-2.7,5.6-4.3
		C174.9,190.1,174.5,188.6,172.7,187.1z"/>
	<path class="st0" d="M608.2,121.6c-2.1,0-4.5,1.4-7.4,4.3c-4.1,5.3-8.4,10.7-12.9,16.2c-4.5,5.5-9.2,10.4-13.9,14.6
		c-4.7,4.2-9.6,7.6-14.5,10c-4.9,2.4-9.9,3.1-14.9,2.2c-4-1.4-6.1-5.1-6.2-11.1c9.2-3,18.2-7.5,27-13.4c8.8-5.9,15.9-12.5,21.4-19.7
		c2.2-2.9,3.9-6,5.1-9.2c1.2-3.3,1.8-6.5,1.8-9.7c-0.1-4.3-1.6-8.1-4.5-11.2c-2.9-3.1-7.8-4.8-14.5-5.2c-7.1-0.3-13.6,0.9-19.8,3.7
		c-6.1,2.8-11.7,6.6-16.7,11.3c-5,4.7-9.6,10.2-13.6,16.3c-3.5,5.3-6.5,10.7-9.1,16.1c-3.3,4.4-6.7,8.8-10.2,13.3
		c-4,5.1-8.4,9.5-13.3,13.2c-3.9,3.4-7,5.6-9.2,6.8c-2.2,1.2-3.4,0.2-3.4-3c0-0.8,0.2-2,0.8-3.6c0.5-1.6,1.2-3.4,1.9-5.5
		c2-5,4.7-11.3,8.1-19c3.4-7.7,7.1-15.6,11.1-23.8c3.6-6.9,7.4-13.9,11.5-21.1c4.1-7.2,8-14,11.8-20.4L528,68h8.9
		c2.6-0.3,4.6-1.3,6.2-3c1.6-1.7,2.3-3.2,2.3-4.7c0-1.8-1.5-2.8-4.4-3.1h-6.2l4.9-8.9c0.8-1.8,1.4-3.4,2-5c0.5-1.6,0.8-3.1,0.8-4.6
		c-0.1-3.2-1.1-5.7-3.1-7.4c-2-1.8-4.5-2.6-7.4-2.6c-2.2,0-4.4,0.5-6.5,1.6c-2.1,1-4.2,2.8-6.4,5.2c-1.3,1.3-3.2,3.9-5.9,7.8
		c-2.7,3.9-5.8,8.8-9.4,14.5h-7.9c-1.2,0.4-2.3,1-3.3,1.7c-0.5-1.2-1.9-1.9-4.2-2.1h-6.2l4.9-8.9c0.8-1.8,1.4-3.4,2-5
		c0.5-1.6,0.8-3.1,0.8-4.6c-0.1-3.2-1.1-5.7-3.1-7.4c-2-1.8-4.5-2.6-7.4-2.6c-2.2,0-4.4,0.5-6.5,1.6c-2.1,1-4.2,2.8-6.4,5.2
		c-1.3,1.3-3.2,3.9-5.9,7.8c-2.7,3.9-5.8,8.8-9.4,14.5h-7.9c-1.6,0.5-3,1.2-4.2,2.3c-1.2,1-2,2.1-2.6,3.2c-0.5,1.1-0.7,2.2-0.4,3.1
		c0.3,1,1.1,1.7,2.6,2.2h6c-1.4,2.7-2.8,5.2-4.1,7.6c-1.3,2.3-2.4,4.4-3.1,6.1l-5.8,11.1l0-0.2l-3.2,7c-4.3,9-8.5,17.8-12.6,26.5
		c-1.1,2.3-2.1,4.6-3.1,6.8c-2.3,2.9-4.7,5.8-7.1,8.8c-4.5,5.5-9.2,10.4-13.9,14.6c-4.7,4.2-9.6,7.6-14.5,10
		c-4.9,2.4-9.9,3.1-14.9,2.2c-4-1.4-6.1-5.1-6.2-11.1c9.2-3,18.2-7.5,27-13.4c8.8-5.9,15.9-12.5,21.4-19.7c2.2-2.9,3.9-6,5.1-9.2
		c1.2-3.3,1.8-6.5,1.8-9.7c-0.1-4.3-1.6-8.1-4.5-11.2c-2.9-3.1-7.8-4.8-14.5-5.2c-7.1-0.3-13.6,0.9-19.8,3.7
		c-6.1,2.8-11.7,6.6-16.7,11.3c-5,4.7-9.6,10.2-13.6,16.3c-3.4,5.1-6.3,10.3-8.8,15.4c-2.3,2.9-4.6,5.7-6.9,8.6
		c-4.2,5.2-8.6,9.8-13,13.7c-4.4,3.9-8.9,6.9-13.5,8.9c-4.6,2-9.3,2.5-14.1,1.6c-4-1.1-6.1-4.1-6.2-8.9c0-2.4,0.4-5.2,1.4-8.5
		c1-3.3,2.3-6.8,4-10.4c2.5-5.6,5.7-10.9,9.7-15.9c4-5,7.9-9,11.7-12.1c3.8-3.1,7.1-5.2,9.9-6.1c2.8-1,4.2-0.3,4.2,1.9
		c0,2.1-1.5,5.6-4.6,10.6c-2.5,4.3-3.7,7.5-3.7,9.6c0,2.6,1.2,3.8,3.4,3.8c1.6,0,3.5-0.7,5.7-2c2.2-1.4,4.3-3.4,6.4-6.1
		c4.7-6.1,7-12.4,6.9-19c-0.1-4.3-1.5-8.1-4.4-11.2c-2.9-3.1-7.7-4.8-14.4-5.2c-7.1-0.3-13.6,0.9-19.8,3.7
		c-6.1,2.8-11.7,6.6-16.9,11.3c-5.1,4.7-9.7,10.2-13.6,16.3c-4,6.2-7.3,12.4-10.1,18.6c-0.5,1.2-1,2.4-1.4,3.6
		c-4.3,5.2-8.7,9.8-13.2,13.8c-4.7,4.2-9.6,7.6-14.5,10c-4.9,2.4-9.9,3.1-14.9,2.2c-4-1.4-6.1-5.1-6.2-11.1c9.2-3,18.2-7.5,27-13.4
		c8.8-5.9,15.9-12.5,21.4-19.7c2.2-2.9,3.9-6,5.1-9.2c1.2-3.3,1.8-6.5,1.8-9.7c-0.1-4.3-1.6-8.1-4.5-11.2c-2.9-3.1-7.8-4.8-14.5-5.2
		c-7.1-0.3-13.6,0.9-19.8,3.7c-6.1,2.8-11.7,6.6-16.7,11.3c-5,4.7-9.6,10.2-13.6,16.3c-4.1,6.2-7.5,12.4-10.2,18.6
		c-1.4,3.7-2.5,7.1-3.3,10.3c-0.8,3.2-1.2,6.4-1.2,9.6c0.2,14.1,8.9,22.6,25.9,25.5c2.6,0.5,5.1,0.7,7.7,0.7c6.7,0,13.1-1.5,19-4.6
		c6-3,11.6-7,16.8-11.8c1.8-1.6,3.5-3.3,5.2-5.1c0.9,4.8,3.1,8.9,6.7,12.2c4.6,4.2,11,7.1,19,8.5c7.4,0.6,14.4-0.4,21.2-3.2
		c6.8-2.8,13.1-6.7,19.1-11.6c3.5-2.9,6.8-6,10-9.3c0.7,13.3,9.3,21.4,25.8,24.2c2.6,0.5,5.1,0.7,7.7,0.7c6.7,0,13.1-1.5,19-4.6
		c6-3,11.6-7,16.8-11.8c2.7-2.5,5.4-5.1,7.9-7.9c0,0.5,0,1,0,1.4c0,2.2,0.2,4.5,0.6,6.7c0.4,2.2,1,4.4,1.9,6.4
		c0.9,2,2.1,3.7,3.7,5.2c1.5,1.4,3.6,2.5,6.2,3.1c6.1,0.6,12-0.6,17.8-3.7c5.8-3.1,11.3-7.3,16.5-12.6c2-2.1,4-4.2,5.9-6.5
		c0,0.5,0,1,0,1.5c0,2.2,0.2,4.5,0.6,6.7c0.4,2.2,1,4.4,1.9,6.4c0.9,2,2.1,3.7,3.7,5.2c1.5,1.4,3.6,2.5,6.2,3.1
		c6.1,0.6,12-0.6,17.8-3.7c5.8-3.1,11.3-7.3,16.5-12.6c2-2,3.9-4.1,5.7-6.3c1.1,12.8,9.6,20.6,25.8,23.3c2.6,0.5,5.1,0.7,7.7,0.7
		c6.7,0,13.1-1.5,19-4.6c6-3,11.6-7,16.8-11.8c5.3-4.8,10.2-10.2,14.9-16.1c4.6-5.9,8.9-11.8,12.8-17.8c2.5-3.5,3.7-6.7,3.7-9.6
		C610.6,122.9,609.8,121.6,608.2,121.6z M543.6,141.4c0.1-0.4,0.3-0.8,0.6-1.1L544,141c2.5-5.8,5.7-11.1,9.7-16.1
		c4-5,7.9-9,11.7-12.1c3.8-3.1,7.1-5.1,9.9-6c2.8-0.9,4.2-0.2,4.2,2c0,1-0.3,2.3-0.9,4c-0.6,1.7-1.7,3.8-3.3,6.4
		c-4.1,5.1-8.8,10-14,14.5c-5.3,4.6-11.2,8.4-17.7,11.6C543.5,143.1,543.5,141.8,543.6,141.4z M361.3,141.4c0.1-0.4,0.3-0.8,0.6-1.1
		l-0.2,0.7c2.5-5.8,5.7-11.1,9.7-16.1c4-5,7.9-9,11.7-12.1c3.8-3.1,7.1-5.1,9.9-6c2.8-0.9,4.2-0.2,4.2,2c0,1-0.3,2.3-0.9,4
		c-0.6,1.7-1.7,3.8-3.3,6.4c-4.1,5.1-8.8,10-14,14.5c-5.3,4.6-11.2,8.4-17.7,11.6C361.2,143.1,361.2,141.8,361.3,141.4z
		 M210.7,141.4c0.1-0.4,0.3-0.8,0.6-1.1l-0.2,0.7c2.5-5.8,5.7-11.1,9.7-16.1c4-5,7.9-9,11.7-12.1c3.8-3.1,7.1-5.1,9.9-6
		c2.8-0.9,4.2-0.2,4.2,2c0,1-0.3,2.3-0.9,4c-0.6,1.7-1.7,3.8-3.3,6.4c-4.1,5.1-8.8,10-14,14.5c-5.3,4.6-11.2,8.4-17.7,11.6
		C210.6,143.1,210.7,141.8,210.7,141.4z M439.4,163.4c-3.9,3.4-7,5.6-9.2,6.8c-2.2,1.2-3.4,0.2-3.4-3c0-0.8,0.2-2,0.8-3.6
		c0.5-1.6,1.2-3.4,1.9-5.5c2-5,4.7-11.3,8.1-19c3.4-7.7,7.1-15.6,11.1-23.8c3.6-6.9,7.4-13.9,11.5-21.1c4.1-7.2,8-14,11.8-20.4
		l3.5-5.8h8.9c1.7-0.2,3.2-0.8,4.5-1.6c0.3,0.9,1.1,1.6,2.5,2.1h6c-1.4,2.7-2.8,5.2-4.1,7.6c-1.3,2.3-2.4,4.4-3.1,6.1l-5.8,11.1
		l0-0.2l-3.2,7c-4.3,9-8.5,17.8-12.6,26.5c-1.2,2.6-2.4,5.2-3.4,7.7l-0.6,0.8c-3.8,5-7.6,10-11.6,15.1
		C448.7,155.3,444.3,159.7,439.4,163.4z"/>
</g>
</svg>
